HIERARCHY
ROOT hip
{
  OFFSET 0 0 0
  CHANNELS 6 Xposition Yposition Zposition Zrotation Yrotation Xrotation
  JOINT abdomen
  {
    OFFSET 0 20.6881 -0.73152
    CHANNELS 3 Zrotation Xrotation Yrotation
    JOINT chest
    {
      OFFSET 0 11.7043 -0.48768
      CHANNELS 3 Zrotation Xrotation Yrotation
      JOINT neck
      {
        OFFSET 0 22.1894 -2.19456
        CHANNELS 3 Zrotation Xrotation Yrotation
        JOINT head
        {
          OFFSET -0.24384 7.07133 1.2192
          CHANNELS 3 Zrotation Xrotation Yrotation
          JOINT leftEye
          {
            OFFSET 4.14528 8.04674 8.04672
            CHANNELS 3 Zrotation Xrotation Yrotation
            End Site
            {
              OFFSET 1 0 0
            }
          }
          JOINT rightEye
          {
            OFFSET -3.6576 8.04674 8.04672
            CHANNELS 3 Zrotation Xrotation Yrotation
            End Site
            {
              OFFSET 1 0 0
            }
          }
        }
      }
      JOINT rCollar
      {
        OFFSET -2.68224 19.2634 -4.8768
        CHANNELS 3 Zrotation Xrotation Yrotation
        JOINT rShldr
        {
          OFFSET -8.77824 -1.95073 1.46304
          CHANNELS 3 Zrotation Xrotation Yrotation
          JOINT rForeArm
          {
            OFFSET -28.1742 -1.7115 0.48768
            CHANNELS 3 Zrotation Xrotation Yrotation
            JOINT rHand
            {
              OFFSET -22.5879 0.773209 7.07136
              CHANNELS 3 Zrotation Xrotation Yrotation
              JOINT rThumb1
              {
                OFFSET -1.2192 -0.487915 3.41376
                CHANNELS 3 Zrotation Xrotation Yrotation
                JOINT rThumb2
                {
                  OFFSET -3.37035 -0.52449 3.41376
                  CHANNELS 3 Zrotation Xrotation Yrotation
                  End Site
                  {
                    OFFSET -1.78271 -1.18214 1.43049
                  }
                }
              }
              JOINT rIndex1
              {
                OFFSET -7.75947 0.938293 5.60832
                CHANNELS 3 Zrotation Xrotation Yrotation
                JOINT rIndex2
                {
                  OFFSET -2.54057 -0.884171 1.56538
                  CHANNELS 3 Zrotation Xrotation Yrotation
                  End Site
                  {
                    OFFSET -1.62519 -0.234802 1.16502
                  }
                }
              }
              JOINT rMid1
              {
                OFFSET -8.24714 1.18213 3.41376
                CHANNELS 3 Zrotation Xrotation Yrotation
                JOINT rMid2
                {
                  OFFSET -3.10165 -0.590103 1.0647
                  CHANNELS 3 Zrotation Xrotation Yrotation
                  End Site
                  {
                    OFFSET -2.48547 -0.328903 0.83742
                  }
                }
              }
              JOINT rRing1
              {
                OFFSET -8.82822 0.546677 1.51678
                CHANNELS 3 Zrotation Xrotation Yrotation
                JOINT rRing2
                {
                  OFFSET -2.60934 -0.819778 -0.0198488
                  CHANNELS 3 Zrotation Xrotation Yrotation
                  End Site
                  {
                    OFFSET -2.33842 -0.294052 0.168128
                  }
                }
              }
              JOINT rPinky1
              {
                OFFSET -8.27202 -0.0477905 -0.4584
                CHANNELS 3 Zrotation Xrotation Yrotation
                JOINT rPinky2
                {
                  OFFSET -1.82734 -0.647385 -0.700984
                  CHANNELS 3 Zrotation Xrotation Yrotation
                  End Site
                  {
                    OFFSET -1.69225 -0.51767 -0.607171
                  }
                }
              }
            }
          }
        }
      }
      JOINT lCollar
      {
        OFFSET 2.68224 19.2634 -4.8768
        CHANNELS 3 Zrotation Xrotation Yrotation
        JOINT lShldr
        {
          OFFSET 8.77824 -1.95073 1.46304
          CHANNELS 3 Zrotation Xrotation Yrotation
          JOINT lForeArm
          {
            OFFSET 28.1742 -1.7115 0.48768
            CHANNELS 3 Zrotation Xrotation Yrotation
            JOINT lHand
            {
              OFFSET 22.5879 0.773209 7.07136
              CHANNELS 3 Zrotation Xrotation Yrotation
              JOINT lThumb1
              {
                OFFSET 1.2192 -0.487915 3.41376
                CHANNELS 3 Zrotation Xrotation Yrotation
                JOINT lThumb2
                {
                  OFFSET 3.37035 -0.52449 3.41376
                  CHANNELS 3 Zrotation Xrotation Yrotation
                  End Site
                  {
                    OFFSET 1.78271 -1.18214 1.43049
                  }
                }
              }
              JOINT lIndex1
              {
                OFFSET 7.75947 0.938293 5.60832
                CHANNELS 3 Zrotation Xrotation Yrotation
                JOINT lIndex2
                {
                  OFFSET 2.54057 -0.884171 1.56538
                  CHANNELS 3 Zrotation Xrotation Yrotation
                  End Site
                  {
                    OFFSET 1.62519 -0.234802 1.16502
                  }
                }
              }
              JOINT lMid1
              {
                OFFSET 8.24714 1.18213 3.41376
                CHANNELS 3 Zrotation Xrotation Yrotation
                JOINT lMid2
                {
                  OFFSET 3.10165 -0.590103 1.0647
                  CHANNELS 3 Zrotation Xrotation Yrotation
                  End Site
                  {
                    OFFSET 2.48547 -0.328903 0.83742
                  }
                }
              }
              JOINT lRing1
              {
                OFFSET 8.82822 0.546677 1.51678
                CHANNELS 3 Zrotation Xrotation Yrotation
                JOINT lRing2
                {
                  OFFSET 2.60934 -0.819778 -0.0198488
                  CHANNELS 3 Zrotation Xrotation Yrotation
                  End Site
                  {
                    OFFSET 2.33842 -0.294052 0.168128
                  }
                }
              }
              JOINT lPinky1
              {
                OFFSET 8.27202 -0.0477905 -0.4584
                CHANNELS 3 Zrotation Xrotation Yrotation
                JOINT lPinky2
                {
                  OFFSET 1.82734 -0.647385 -0.700984
                  CHANNELS 3 Zrotation Xrotation Yrotation
                  End Site
                  {
                    OFFSET 1.69225 -0.51767 -0.607171
                  }
                }
              }
            }
          }
        }
      }
    }
  }
  JOINT rButtock
  {
    OFFSET -8.77824 4.35084 1.2192
    CHANNELS 3 Zrotation Xrotation Yrotation
    JOINT rThigh
    {
      OFFSET 0 -1.70687 -2.19456
      CHANNELS 3 Zrotation Xrotation Yrotation
      JOINT rShin
      {
        OFFSET 0 -36.8199 0.73152
        CHANNELS 3 Zrotation Xrotation Yrotation
        JOINT rFoot
        {
          OFFSET 0.73152 -45.1104 -5.12064
          CHANNELS 3 Zrotation Xrotation Yrotation
          End Site
          {
            OFFSET -1.1221 -3.69964 12.103
          }
        }
      }
    }
  }
  JOINT lButtock
  {
    OFFSET 8.77824 4.35084 1.2192
    CHANNELS 3 Zrotation Xrotation Yrotation
    JOINT lThigh
    {
      OFFSET 0 -1.70687 -2.19456
      CHANNELS 3 Zrotation Xrotation Yrotation
      JOINT lShin
      {
        OFFSET 0 -36.8199 0.73152
        CHANNELS 3 Zrotation Xrotation Yrotation
        JOINT lFoot
        {
          OFFSET -0.73152 -45.1104 -5.12064
          CHANNELS 3 Zrotation Xrotation Yrotation
          End Site
          {
            OFFSET 1.1221 -3.69964 12.103
          }
        }
      }
    }
  }
}
MOTION
Frames:	4
Frame Time:	0.00833333
-172.114 85.2982 17.5219 0.0 0.0 0.0 0.984357 -0.00436093 0.0272514 0.271545 -0.00455345 0.0470446 3.12484e-14 7.95139e-16 -1.24241e-17 9.41494e-14 3.18055e-15 -5.12492e-17 -0.0 0.0 0.0 -0.0 0.0 0.0 1.59018e-14 -2.79541e-17 1.98785e-16 3.30057e-13 -2.91965e-16 1.59028e-15 5.68112e-12 -1.71293e-12 -7.95139e-14 6.49629e-11 1.6157e-12 1.20861e-13 1.5325e-10 -2.14611e-13 1.11319e-13 2.64659e-10 -3.72125e-13 1.88448e-13 1.53255e-10 -2.14687e-13 1.08139e-13 7.73091 5.47488 0.417314 1.5325e-10 -2.14489e-13 1.11319e-13 2.90554 0.965183 0.102902 1.5326e-10 -2.1419e-13 1.11319e-13 10.2786 0.731801 0.0259123 1.53247e-10 -2.14687e-13 1.20861e-13 2.22167 -0.733487 -0.20892 1.56066e-14 -2.67893e-17 -1.49089e-16 3.28116e-13 -3.04389e-16 3.97569e-16 5.67416e-12 1.68311e-12 -2.8625e-14 6.49915e-11 -1.79316e-12 9.54166e-14 1.53298e-10 -2.43455e-13 1.17681e-13 2.64742e-10 -4.23014e-13 1.9958e-13 1.53294e-10 -2.40927e-13 1.24042e-13 -7.73091 5.47488 -0.417314 1.53298e-10 -2.42716e-13 1.145e-13 -2.90554 0.965183 -0.102902 1.53284e-10 -2.42617e-13 1.1609e-13 -10.2786 0.731801 -0.0259123 1.53299e-10 -2.42517e-13 1.08139e-13 -2.22167 -0.733487 0.20892 -2.03217e-16 0.0 -3.88251e-19 1.24881 -5.45298 -0.109163 6.93373e-05 4.32234 0.0238811 -0.510657 1.12951 0.0812324 2.03217e-16 0.0 3.88251e-19 0.249653 -1.91924 0.0129235 0.00928378 -2.07855 0.0766854 0.496272 3.99654 -0.137948
-166.685 83.884 6.43311 178.193 59.686 -178.359 0.151639 -1.68071 -0.106311 1.07608 1.73562 -0.0108538 -1.27853 -0.939488 -1.02902 1.49521 6.04614 -1.13724 -0.0 0.0 0.0 -0.0 0.0 0.0 4.15979e-15 -4.73733e-14 7.86442e-15 22.211 6.75053 1.13097 -3.73745 -1.61241 5.92731 0.00586431 -1.701 -0.238681 9.31668e-11 3.24317e-11 3.75614e-10 1.59732e-10 5.61798e-11 6.49432e-10 9.31707e-11 3.24311e-11 3.7561e-10 7.73091 5.47488 0.417314 9.31669e-11 3.24307e-11 3.75615e-10 2.90554 0.965183 0.102902 9.3175e-11 3.24311e-11 3.75614e-10 10.2786 0.731801 0.0259123 9.31625e-11 3.24309e-11 3.75623e-10 2.22167 -0.733487 -0.20892 3.97278e-15 -4.73719e-14 7.5278e-15 -23.287 8.71405 -2.29175 2.57654 -0.964823 -4.22026 -4.13887e-05 -0.145481 0.0204458 2.04428e-10 4.30186e-10 -2.00613e-10 3.52468e-10 7.45525e-10 -3.46455e-10 2.04424e-10 4.30189e-10 -2.00606e-10 -7.73091 5.47488 -0.417314 2.04429e-10 4.30187e-10 -2.00615e-10 -2.90554 0.965183 -0.102902 2.04415e-10 4.30187e-10 -2.00615e-10 -10.2786 0.731801 -0.0259123 2.04431e-10 4.30188e-10 -2.00622e-10 -2.22167 -0.733487 0.20892 -2.03217e-16 0.0 -3.88251e-19 0.0219728 -6.19266 -0.129032 0.03697 9.83649 0.169796 -1.37399 -5.10458 -6.53594 2.03217e-16 0.0 3.88251e-19 1.20368 -4.667 -0.620486 -0.0435691 5.82066 -0.131771 1.20989 -2.10708 5.65592
-166.668 83.8839 6.47065 178.474 59.7842 -178.1 -0.739128 -3.44773 -0.242463 1.92935 3.57955 -0.0707183 -2.66131 -1.94898 -2.11495 3.33514 12.4333 -2.37778 -0.0 0.0 0.0 -0.0 0.0 0.0 -8.47939e-15 -9.77446e-14 1.90585e-14 45.3897 13.8778 2.3949 -7.32926 -3.26038 12.2106 -0.00340161 -3.50911 -0.493108 9.43513e-12 7.13245e-11 7.9305e-10 1.37692e-11 1.23544e-10 1.37114e-09 9.4383e-12 7.13232e-11 7.93045e-10 7.73091 5.47488 0.417314 9.43564e-12 7.13224e-11 7.93052e-10 2.90554 0.965183 0.102902 9.4421e-12 7.13228e-11 7.9305e-10 10.2786 0.731801 0.0259123 9.43026e-12 7.13229e-11 7.93058e-10 2.22167 -0.733487 -0.20892 -8.54832e-15 -9.7743e-14 1.87323e-14 -47.109 17.8867 -4.90809 5.14555 -1.96698 -8.68439 2.93868e-05 -0.302539 0.0425191 2.41661e-10 9.3451e-10 -4.18769e-10 4.161e-10 1.61954e-09 -7.23163e-10 2.41657e-10 9.34512e-10 -4.18762e-10 -7.73091 5.47488 -0.417314 2.41663e-10 9.34511e-10 -4.18769e-10 -2.90554 0.965183 -0.102902 2.41649e-10 9.34511e-10 -4.18771e-10 -10.2786 0.731801 -0.0259123 2.41666e-10 9.34511e-10 -4.18778e-10 -2.22167 -0.733487 0.20892 -2.03217e-16 0.0 -3.88251e-19 -1.27488 -6.97365 -0.14959 0.0443752 15.6662 0.331332 -3.86625 -11.4337 -13.7594 2.03217e-16 0.0 3.88251e-19 2.14559 -7.56966 -1.29522 -0.0354288 14.1712 -0.361724 3.30821 -8.39511 11.9034
-166.68 83.8758 6.47358 178.29 59.8997 -178.199 -1.53732 -5.03332 -0.374744 2.69574 5.21595 -0.127162 -3.93688 -2.81483 -3.09037 5.2371 18.1091 -3.56978 -0.0 0.0 0.0 -0.0 0.0 0.0 -1.93243e-14 -1.42064e-13 2.31957e-14 65.7893 20.2189 3.59092 -10.2266 -4.63055 17.835 -0.0250658 -5.10265 -0.718576 -2.70006e-11 9.77242e-11 1.12662e-09 -5.012e-11 1.69284e-10 1.94792e-09 -2.69981e-11 9.77225e-11 1.12661e-09 7.73091 5.47488 0.417314 -2.69998e-11 9.77212e-11 1.12662e-09 2.90554 0.965183 0.102902 -2.69947e-11 9.77217e-11 1.12662e-09 10.2786 0.731801 0.0259123 -2.70059e-11 9.77221e-11 1.12663e-09 2.22167 -0.733487 -0.20892 -1.92948e-14 -1.42062e-13 2.28816e-14 -67.5761 25.9652 -7.56307 7.30665 -2.83173 -12.6747 0.000187329 -0.436444 0.0613391 3.06689e-10 1.29105e-09 -6.02075e-10 5.27922e-10 2.23742e-09 -1.03976e-09 3.06684e-10 1.29105e-09 -6.02067e-10 -7.73091 5.47488 -0.417314 3.06691e-10 1.29105e-09 -6.02073e-10 -2.90554 0.965183 -0.102902 3.06677e-10 1.29105e-09 -6.02077e-10 -10.2786 0.731801 -0.0259123 3.06695e-10 1.29105e-09 -6.02083e-10 -2.22167 -0.733487 0.20892 -2.03217e-16 0.0 -3.88251e-19 -2.43325 -7.67203 -0.169012 0.0210448 20.8642 0.486154 -7.47958 -16.6079 -20.5874 2.03217e-16 0.0 3.88251e-19 2.92689 -10.1578 -1.91108 0.0327961 21.6181 -0.587898 6.3628 -13.6885 17.7517
